<?xml version="1.0" encoding="UTF-8"?>
<!DOCTYPE svg PUBLIC "-//W3C//DTD SVG 1.1//EN" "http://www.w3.org/Graphics/SVG/1.1/DTD/svg11.dtd">
<svg version="1.1" xmlns="http://www.w3.org/2000/svg" xmlns:xlink="http://www.w3.org/1999/xlink" x="0px" y="0px" width="128" height="128" viewBox="0, 0, 128, 128">
  <g id="Background">
    <rect x="0" y="0" width="128" height="128" fill="#000000" fill-opacity="0"/>
  </g>
  <g id="Background">
    <path d="M18.093,6 L109.907,6 C116.561,6 122,11.439 122,18.093 L122,109.907 C122,116.561 116.561,122 109.907,122 L18.093,122 C11.439,122 6,116.561 6,109.907 L6,18.093 C6,11.439 11.439,6 18.093,6" fill="#727272"/>
    <path d="M49.366,42.975 C48.261,42.975 47.362,43.869 47.362,44.974 C47.362,46.08 48.261,46.975 49.366,46.975 C50.471,46.975 51.367,46.08 51.367,44.974 C51.367,43.869 50.471,42.975 49.366,42.975" fill="#EBEDED"/>
    <path d="M42.672,43.792 C43.777,43.792 44.671,42.896 44.671,41.791 C44.671,40.686 43.777,39.791 42.672,39.791 C41.567,39.791 40.671,40.686 40.671,41.791 C40.671,42.896 41.567,43.792 42.672,43.792" fill="#EBEDED"/>
    <path d="M56.099,46.468 C54.994,46.468 54.093,47.364 54.093,48.469 C54.093,49.574 54.994,50.468 56.099,50.468 C57.204,50.468 58.098,49.574 58.098,48.469 C58.098,47.364 57.204,46.468 56.099,46.468" fill="#EBEDED"/>
    <path d="M56.099,39.791 C54.994,39.791 54.093,40.686 54.093,41.791 C54.093,42.896 54.994,43.792 56.099,43.792 C57.204,43.792 58.098,42.896 58.098,41.791 C58.098,40.686 57.204,39.791 56.099,39.791" fill="#EBEDED"/>
    <path d="M49.366,36.622 C48.261,36.622 47.362,37.517 47.362,38.622 C47.362,39.727 48.261,40.628 49.366,40.628 C50.471,40.628 51.367,39.727 51.367,38.622 C51.367,37.517 50.471,36.622 49.366,36.622" fill="#EBEDED"/>
    <path d="M33.99,47.752 C27.642,47.752 22.412,51.926 21.715,57.296 L46.266,57.296 C45.572,51.926 40.342,47.752 33.99,47.752" fill="#EBECEC"/>
    <path d="M19.435,60.936 L48.545,60.936 L48.545,108.067 L19.435,108.067 z" fill="#EBEDED"/>
    <path d="M37.402,45.368 L37.402,43.249 C36.725,43.085 36.218,42.472 36.218,41.746 C36.218,41.016 36.725,40.409 37.402,40.243 L37.402,38.375 L30.579,38.375 L30.579,45.368 C31.679,45.144 32.822,45.021 33.99,45.021 C35.164,45.021 36.305,45.144 37.402,45.368" fill="#EBECEC"/>
    <path d="M54.093,35.11 C54.093,34.004 54.994,33.11 56.099,33.11 C57.204,33.11 58.098,34.004 58.098,35.11 C58.098,36.215 57.204,37.111 56.099,37.111 C54.994,37.111 54.093,36.215 54.093,35.11" fill="#EBEDED"/>
    <path d="M87.053,16.221 L98.392,22.77 L109.733,29.319 L109.733,42.413 L109.733,55.506 L98.392,62.055 L87.053,68.605 L75.714,62.055 L64.374,55.506 L64.374,42.413 L64.374,29.319 L75.714,22.77 z" fill="#EBEDED"/>
    <path d="M87.053,29.406 C79.869,29.406 74.047,35.229 74.047,42.413 C74.047,49.597 79.869,55.419 87.053,55.419 C94.237,55.419 100.06,49.597 100.06,42.413 C100.06,35.229 94.237,29.406 87.053,29.406" fill="#737370"/>
  </g>
  <defs/>
</svg>
